<svg width="58" height="73" viewBox="0 0 58 73" fill="none" xmlns="http://www.w3.org/2000/svg">
<mask id="mask0_1_76" style="mask-type:alpha" maskUnits="userSpaceOnUse" x="0" y="0" width="58" height="73">
<path fill-rule="evenodd" clip-rule="evenodd" d="M28.2587 0H0C0 0 0 14.2257 12.1287 14.2257H28.2587H45.1024C57.7678 14.2257 57.7678 0 57.7678 0H28.2587ZM15.3798 25.7356H45.6391C45.2408 33.0973 40.7626 39.7027 34.7608 39.7027H18.8809C17.2444 39.7027 14.4057 42.3023 13.9407 45.2826L13.9868 59.9084C14.0255 72.1738 0.271293 72.2202 0.271293 72.2202L0.188953 46.0828C0.146954 46.0249 0.125083 45.9673 0.125083 45.9103V43.2745C0.123724 43.2487 0.123719 43.222 0.125083 43.1945C0.37516 38.1508 6.37701 25.7356 15.3798 25.7356Z" fill="black"/>
</mask>
<g mask="url(#mask0_1_76)">
<rect x="-1.68636" y="-3.48833" width="71.3892" height="22.0928" fill="url(#paint0_linear_1_76)"/>
<g filter="url(#filter0_d_1_76)">
<path d="M23.8901 13.9533C20.2926 0.697637 44.6886 -0.872111 57.3363 -2.90722e-05L64.9248 15.9882C52.7456 20.8331 27.4877 27.2089 23.8901 13.9533Z" fill="url(#paint1_linear_1_76)"/>
</g>
<ellipse cx="24.7333" cy="49.7087" rx="39.9105" ry="29.3601" fill="url(#paint2_linear_1_76)"/>
<g filter="url(#filter1_d_1_76)">
<path d="M11.2424 41.2786C21.3605 41.5111 25.0143 31.1043 25.5765 25.8718L24.7333 20.3486L-7.86967 26.7439L-1.96742 49.418C-1.78004 46.608 1.12424 41.046 11.2424 41.2786Z" fill="url(#paint3_linear_1_76)"/>
</g>
</g>
<defs>
<filter id="filter0_d_1_76" x="19.532" y="-0.197369" width="49.3928" height="30.0493" filterUnits="userSpaceOnUse" color-interpolation-filters="sRGB">
<feFlood flood-opacity="0" result="BackgroundImageFix"/>
<feColorMatrix in="SourceAlpha" type="matrix" values="0 0 0 0 0 0 0 0 0 0 0 0 0 0 0 0 0 0 127 0" result="hardAlpha"/>
<feOffset dy="4"/>
<feGaussianBlur stdDeviation="2"/>
<feComposite in2="hardAlpha" operator="out"/>
<feColorMatrix type="matrix" values="0 0 0 0 0 0 0 0 0 0 0 0 0 0 0 0 0 0 0.25 0"/>
<feBlend mode="normal" in2="BackgroundImageFix" result="effect1_dropShadow_1_76"/>
<feBlend mode="normal" in="SourceGraphic" in2="effect1_dropShadow_1_76" result="shape"/>
</filter>
<filter id="filter1_d_1_76" x="-11.8697" y="16.3486" width="41.4461" height="37.0694" filterUnits="userSpaceOnUse" color-interpolation-filters="sRGB">
<feFlood flood-opacity="0" result="BackgroundImageFix"/>
<feColorMatrix in="SourceAlpha" type="matrix" values="0 0 0 0 0 0 0 0 0 0 0 0 0 0 0 0 0 0 127 0" result="hardAlpha"/>
<feOffset/>
<feGaussianBlur stdDeviation="2"/>
<feComposite in2="hardAlpha" operator="out"/>
<feColorMatrix type="matrix" values="0 0 0 0 0 0 0 0 0 0 0 0 0 0 0 0 0 0 0.2 0"/>
<feBlend mode="normal" in2="BackgroundImageFix" result="effect1_dropShadow_1_76"/>
<feBlend mode="normal" in="SourceGraphic" in2="effect1_dropShadow_1_76" result="shape"/>
</filter>
<linearGradient id="paint0_linear_1_76" x1="0.562124" y1="4.36041" x2="29.708" y2="13.9361" gradientUnits="userSpaceOnUse">
<stop stop-color="#DA22FF"/>
<stop offset="1" stop-color="#9733EE"/>
</linearGradient>
<linearGradient id="paint1_linear_1_76" x1="44.2284" y1="-0.197369" x2="55.5994" y2="16.2151" gradientUnits="userSpaceOnUse">
<stop stop-color="#DA22FF"/>
<stop offset="1" stop-color="#EEBEF8"/>
</linearGradient>
<linearGradient id="paint2_linear_1_76" x1="40.1916" y1="24.9997" x2="-2.14539" y2="63.6906" gradientUnits="userSpaceOnUse">
<stop stop-color="#9733EE"/>
<stop offset="0.348958" stop-color="#DA22FF"/>
<stop offset="0.723958" stop-color="#9733EE"/>
<stop offset="1" stop-color="#DA22FF"/>
</linearGradient>
<linearGradient id="paint3_linear_1_76" x1="26.8466" y1="22.5425" x2="5.40537" y2="42.5319" gradientUnits="userSpaceOnUse">
<stop stop-color="#D54DF0"/>
<stop offset="1" stop-color="#7B38B6"/>
</linearGradient>
</defs>
</svg>
